name analog
datacolumns 19
datarows 70
range 0.3635 0.398
endheader
time	ground_force_vx	ground_force_vy	ground_force_vz	ground_force_px	ground_force_py	ground_force_pz	l_ground_force_vx	l_ground_force_vy	l_ground_force_vz	l_ground_force_px	l_ground_force_py	l_ground_force_pz	ground_torque_x	ground_torque_y	ground_torque_z	l_ground_torque_x	l_ground_torque_y	l_ground_torque_z
0.3635	-0.0	-0.0	-0.0	-0.0	-0.0	-0.0	4.760264873504639	2.3602426052093506	-489.0647888183594	-0.0	-0.0	-0.0	-0.0	-0.0	-0.0	165626.8125	-36788.2578125	284.2063903808594
0.364	-0.0	-0.0	-0.0	-0.0	-0.0	-0.0	4.144923210144043	3.0029373168945312	-491.3526916503906	-0.0	-0.0	-0.0	-0.0	-0.0	-0.0	166769.78125	-36928.34765625	-34.14054107666016
0.3645	-0.0	-0.0	-0.0	-0.0	-0.0	-0.0	3.508573532104492	3.395907163619995	-495.0008544921875	-0.0	-0.0	-0.0	-0.0	-0.0	-0.0	168045.90625	-36888.5703125	-263.6184997558594
0.365	-0.0	-0.0	-0.0	-0.0	-0.0	-0.0	3.162262201309204	3.517273187637329	-499.1909790039063	-0.0	-0.0	-0.0	-0.0	-0.0	-0.0	169255.03125	-36892.0625	-431.3431091308594
0.3655	-0.0	-0.0	-0.0	-0.0	-0.0	-0.0	2.7658963203430176	4.12694263458252	-502.6496276855469	-0.0	-0.0	-0.0	-0.0	-0.0	-0.0	170765.53125	-36869.9921875	-719.5298461914062
0.366	-0.0	-0.0	-0.0	-0.0	-0.0	-0.0	1.6612788438796997	4.287680625915527	-505.4131164550781	-0.0	-0.0	-0.0	-0.0	-0.0	-0.0	171461.0	-36719.125	-992.8447265625
0.3665	-0.0	-0.0	-0.0	-0.0	-0.0	-0.0	1.0807934999465942	4.705092430114746	-506.0157470703125	-0.0	-0.0	-0.0	-0.0	-0.0	-0.0	171846.25	-36174.5234375	-1319.4044189453125
0.367	-0.0	-0.0	-0.0	-0.0	-0.0	-0.0	-0.1609865576028823	4.665802478790283	-504.9680480957031	-0.0	-0.0	-0.0	-0.0	-0.0	-0.0	171361.859375	-35831.08203125	-1665.611328125
0.3675	-0.0	-0.0	-0.0	-0.0	-0.0	-0.0	-0.3788579106330871	3.9671597480773926	-502.8439331054688	-0.0	-0.0	-0.0	-0.0	-0.0	-0.0	170571.21875	-35055.92578125	-1654.874755859375
0.368	-0.0	-0.0	-0.0	-0.0	-0.0	-0.0	-0.9110559225082396	3.4109604358673096	-499.1540222167969	-0.0	-0.0	-0.0	-0.0	-0.0	-0.0	169716.25	-34388.31640625	-1571.9757080078125
0.3685	-0.0	-0.0	-0.0	-0.0	-0.0	-0.0	-1.460301637649536	2.996114730834961	-500.56243896484375	-0.0	-0.0	-0.0	-0.0	-0.0	-0.0	169224.6875	-34127.5390625	-1707.1055908203125
0.369	-0.0	-0.0	-0.0	-0.0	-0.0	-0.0	-1.726588249206543	2.9792280197143555	-500.6834106445313	-0.0	-0.0	-0.0	-0.0	-0.0	-0.0	169560.78125	-33878.4140625	-1782.501953125
0.3695	-0.0	-0.0	-0.0	-0.0	-0.0	-0.0	-2.4664323329925537	3.0502231121063232	-501.2882690429688	-0.0	-0.0	-0.0	-0.0	-0.0	-0.0	169732.890625	-33617.03515625	-2069.521484375
0.37	-0.0	-0.0	-0.0	-0.0	-0.0	-0.0	-2.531280994415283	2.8674442768096924	-499.7986450195313	-0.0	-0.0	-0.0	-0.0	-0.0	-0.0	169112.65625	-33206.22265625	-2117.162353515625
0.3705	-0.0	-0.0	-0.0	-0.0	-0.0	-0.0	-2.661323547363281	2.8262939453125	-497.19189453125	-0.0	-0.0	-0.0	-0.0	-0.0	-0.0	168554.359375	-32686.462890625	-2061.8662109375
0.371	-0.0	-0.0	-0.0	-0.0	-0.0	-0.0	-2.2177696228027344	2.290916681289673	-495.8879699707031	-0.0	-0.0	-0.0	-0.0	-0.0	-0.0	167689.921875	-32282.26171875	-1984.8270263671875
0.3715	-0.0	-0.0	-0.0	-0.0	-0.0	-0.0	-1.7089732885360718	1.1481819152832031	-495.004638671875	-0.0	-0.0	-0.0	-0.0	-0.0	-0.0	167148.828125	-32177.40234375	-1602.7818603515625
0.372	-0.0	-0.0	-0.0	-0.0	-0.0	-0.0	-1.176651954650879	0.8832168579101562	-494.8399963378906	-0.0	-0.0	-0.0	-0.0	-0.0	-0.0	167312.734375	-31643.240234375	-1505.6497802734375
0.3725	-0.0	-0.0	-0.0	-0.0	-0.0	-0.0	-1.41937255859375	0.3394109606742859	-497.6144409179688	-0.0	-0.0	-0.0	-0.0	-0.0	-0.0	167886.671875	-31858.015625	-1470.08056640625
0.373	-0.0	-0.0	-0.0	-0.0	-0.0	-0.0	-1.6389493942260742	1.217708945274353	-498.7544555664063	-0.0	-0.0	-0.0	-0.0	-0.0	-0.0	168749.09375	-31698.337890625	-1618.2822265625
0.3735	-0.0	-0.0	-0.0	-0.0	-0.0	-0.0	-1.770080804824829	1.943077087402344	-500.00140380859375	-0.0	-0.0	-0.0	-0.0	-0.0	-0.0	169766.0	-31932.447265625	-1846.3148193359373
0.374	-0.0	-0.0	-0.0	-0.0	-0.0	-0.0	-1.889987587928772	2.5843818187713623	-504.5241088867188	-0.0	-0.0	-0.0	-0.0	-0.0	-0.0	170936.28125	-31654.982421875	-2032.021240234375
0.3745	-0.0	-0.0	-0.0	-0.0	-0.0	-0.0	-1.8824056386947632	3.1142349243164062	-506.6331481933594	-0.0	-0.0	-0.0	-0.0	-0.0	-0.0	171583.140625	-31623.45703125	-2158.3056640625
0.375	-0.0	-0.0	-0.0	-0.0	-0.0	-0.0	-1.1959298849105835	3.2908120155334477	-507.66644287109375	-0.0	-0.0	-0.0	-0.0	-0.0	-0.0	171972.84375	-31946.99609375	-2038.02490234375
0.3755	-0.0	-0.0	-0.0	-0.0	-0.0	-0.0	-0.7525302171707153	3.5526907444000244	-508.2080078125	-0.0	-0.0	-0.0	-0.0	-0.0	-0.0	172736.046875	-31963.439453125	-2023.4453125
0.376	-0.0	-0.0	-0.0	-0.0	-0.0	-0.0	-0.5322647094726562	3.732286930084229	-512.5545654296875	-0.0	-0.0	-0.0	-0.0	-0.0	-0.0	173636.296875	-31807.625	-1875.914794921875
0.3765	-0.0	-0.0	-0.0	-0.0	-0.0	-0.0	-0.8871078491210938	4.196557521820068	-513.1731567382812	-0.0	-0.0	-0.0	-0.0	-0.0	-0.0	174284.25	-31609.2890625	-1847.2239990234373
0.377	-0.0	-0.0	-0.0	-0.0	-0.0	-0.0	-1.2396937608718872	4.216798782348633	-515.6968994140625	-0.0	-0.0	-0.0	-0.0	-0.0	-0.0	174351.171875	-31815.943359375	-2054.98876953125
0.3775	-0.0	-0.0	-0.0	-0.0	-0.0	-0.0	-1.3059957027435305	4.198253154754639	-514.8280029296875	-0.0	-0.0	-0.0	-0.0	-0.0	-0.0	174336.390625	-31311.150390625	-2069.428466796875
0.378	-0.0	-0.0	-0.0	-0.0	-0.0	-0.0	-1.6402684450149536	4.216921806335449	-515.9501342773438	-0.0	-0.0	-0.0	-0.0	-0.0	-0.0	174451.40625	-31037.294921875	-2099.268310546875
0.3785	-0.0	-0.0	-0.0	-0.0	-0.0	-0.0	-2.1305124759674072	4.1735615730285645	-516.910400390625	-0.0	-0.0	-0.0	-0.0	-0.0	-0.0	174537.390625	-30467.80859375	-2299.6611328125
0.379	-0.0	-0.0	-0.0	-0.0	-0.0	-0.0	-2.992505550384521	4.10754919052124	-516.4837036132812	-0.0	-0.0	-0.0	-0.0	-0.0	-0.0	174524.9375	-30386.23046875	-2463.59716796875
0.3795	-0.0	-0.0	-0.0	-0.0	-0.0	-0.0	-3.4588425159454346	3.842430591583252	-517.1748046875	-0.0	-0.0	-0.0	-0.0	-0.0	-0.0	174671.359375	-30250.705078125	-2738.06494140625
0.38	-0.0	-0.0	-0.0	-0.0	-0.0	-0.0	-3.680521965026856	3.644078969955444	-518.6635131835938	-0.0	-0.0	-0.0	-0.0	-0.0	-0.0	175062.953125	-29914.12890625	-2686.178955078125
0.3805	-0.0	-0.0	-0.0	-0.0	-0.0	-0.0	-3.814142227172852	3.334458351135254	-518.4918212890625	-0.0	-0.0	-0.0	-0.0	-0.0	-0.0	175064.125	-29878.001953125	-2604.849853515625
0.381	-0.0	-0.0	-0.0	-0.0	-0.0	-0.0	-4.213593006134033	3.422324657440185	-521.0211791992188	-0.0	-0.0	-0.0	-0.0	-0.0	-0.0	175324.890625	-29841.078125	-2679.31640625
0.3815	-0.0	-0.0	-0.0	-0.0	-0.0	-0.0	-4.280104637145996	3.1795806884765625	-520.4107666015625	-0.0	-0.0	-0.0	-0.0	-0.0	-0.0	175420.296875	-29379.736328125	-2694.2607421875
0.382	-0.0	-0.0	-0.0	-0.0	-0.0	-0.0	-4.678828239440918	2.6053004264831543	-519.9736328125	-0.0	-0.0	-0.0	-0.0	-0.0	-0.0	174989.59375	-29373.044921875	-2739.268798828125
0.3825	-0.0	-0.0	-0.0	-0.0	-0.0	-0.0	-4.923104286193848	2.209414005279541	-519.7108154296875	-0.0	-0.0	-0.0	-0.0	-0.0	-0.0	174630.984375	-28862.87109375	-2880.582275390625
0.383	-0.0	-0.0	-0.0	-0.0	-0.0	-0.0	-5.588779449462891	2.097867965698242	-518.83935546875	-0.0	-0.0	-0.0	-0.0	-0.0	-0.0	174323.21875	-28812.98046875	-2873.51416015625
0.3835	-0.0	-0.0	-0.0	-0.0	-0.0	-0.0	-6.033557891845703	1.1699575185775757	-517.3614501953125	-0.0	-0.0	-0.0	-0.0	-0.0	-0.0	174274.734375	-28590.267578125	-2903.756103515625
0.384	-0.0	-0.0	-0.0	-0.0	-0.0	-0.0	-5.878207683563232	1.3465346097946167	-518.83935546875	-0.0	-0.0	-0.0	-0.0	-0.0	-0.0	174315.75	-28377.2109375	-2984.8251953125
0.3845	-0.0	-0.0	-0.0	-0.0	-0.0	-0.0	-5.478320598602295	1.5048905611038208	-518.8460693359375	-0.0	-0.0	-0.0	-0.0	-0.0	-0.0	174407.9375	-28326.498046875	-2666.579833984375
0.385	-0.0	-0.0	-0.0	-0.0	-0.0	-0.0	-4.971858024597168	0.7477070093154907	-519.0099487304688	-0.0	-0.0	-0.0	-0.0	-0.0	-0.0	173986.65625	-28167.896484375	-2658.616455078125
0.3855	-0.0	-0.0	-0.0	-0.0	-0.0	-0.0	-4.214908599853516	0.5944594144821167	-517.61279296875	-0.0	-0.0	-0.0	-0.0	-0.0	-0.0	173744.53125	-28170.4453125	-2323.099365234375
0.386	-0.0	-0.0	-0.0	-0.0	-0.0	-0.0	-3.728374481201172	0.5538933277130127	-517.9614868164062	-0.0	-0.0	-0.0	-0.0	-0.0	-0.0	173800.609375	-27792.841796875	-2362.066650390625
0.3865	-0.0	-0.0	-0.0	-0.0	-0.0	-0.0	-3.3280694484710693	1.0171082019805908	-517.8763427734375	-0.0	-0.0	-0.0	-0.0	-0.0	-0.0	173459.09375	-27858.8125	-2249.396240234375
0.387	-0.0	-0.0	-0.0	-0.0	-0.0	-0.0	-3.4597206115722656	0.706573486328125	-516.9972534179688	-0.0	-0.0	-0.0	-0.0	-0.0	-0.0	173193.40625	-27635.6328125	-2315.053955078125
0.3875	-0.0	-0.0	-0.0	-0.0	-0.0	-0.0	-3.7718913555145264	0.3890695571899414	-517.8626098632812	-0.0	-0.0	-0.0	-0.0	-0.0	-0.0	173129.546875	-27287.642578125	-2257.05078125
0.388	-0.0	-0.0	-0.0	-0.0	-0.0	-0.0	-3.282299041748047	1.0175073146820068	-516.5769653320312	-0.0	-0.0	-0.0	-0.0	-0.0	-0.0	172927.4375	-27070.095703125	-2337.208251953125
0.3885	-0.0	-0.0	-0.0	-0.0	-0.0	-0.0	-3.6294212341308594	0.5760127305984497	-517.5262451171875	-0.0	-0.0	-0.0	-0.0	-0.0	-0.0	172442.9375	-27147.1484375	-2271.088623046875
0.389	-0.0	-0.0	-0.0	-0.0	-0.0	-0.0	-4.12713623046875	0.3574375510215759	-515.530517578125	-0.0	-0.0	-0.0	-0.0	-0.0	-0.0	172239.828125	-26867.619140625	-2435.2958984375
0.3895	-0.0	-0.0	-0.0	-0.0	-0.0	-0.0	-3.831196546554565	-0.1766433715820312	-514.767333984375	-0.0	-0.0	-0.0	-0.0	-0.0	-0.0	171652.40625	-26341.494140625	-2279.85546875
0.39	-0.0	-0.0	-0.0	-0.0	-0.0	-0.0	-3.455057144165039	-0.6647341251373291	-514.30029296875	-0.0	-0.0	-0.0	-0.0	-0.0	-0.0	171541.578125	-26412.439453125	-2264.119140625
0.3905	-0.0	-0.0	-0.0	-0.0	-0.0	-0.0	-3.772694349288941	-1.1273391246795654	-513.088134765625	-0.0	-0.0	-0.0	-0.0	-0.0	-0.0	170603.890625	-26283.24609375	-2341.0908203125
0.391	-0.0	-0.0	-0.0	-0.0	-0.0	-0.0	-3.9450292587280273	-2.3223280906677246	-509.7613525390625	-0.0	-0.0	-0.0	-0.0	-0.0	-0.0	170007.46875	-25831.58203125	-2369.53759765625
0.3915	-0.0	-0.0	-0.0	-0.0	-0.0	-0.0	-4.25811767578125	-2.8524887561798096	-507.80853271484375	-0.0	-0.0	-0.0	-0.0	-0.0	-0.0	169126.703125	-25863.130859375	-2244.30908203125
0.392	-0.0	-0.0	-0.0	-0.0	-0.0	-0.0	-4.293808937072754	-3.4032602310180664	-508.1654052734375	-0.0	-0.0	-0.0	-0.0	-0.0	-0.0	168594.09375	-25577.984375	-2274.18310546875
0.3925	-0.0	-0.0	-0.0	-0.0	-0.0	-0.0	-4.707674980163574	-3.261925220489502	-506.2462463378906	-0.0	-0.0	-0.0	-0.0	-0.0	-0.0	168193.203125	-25642.21875	-2251.7294921875
0.393	-0.0	-0.0	-0.0	-0.0	-0.0	-0.0	-4.346828460693359	-3.3830177783966064	-505.222412109375	-0.0	-0.0	-0.0	-0.0	-0.0	-0.0	167787.875	-25725.46484375	-2228.75390625
0.3935	-0.0	-0.0	-0.0	-0.0	-0.0	-0.0	-4.7493157386779785	-3.60729455947876	-504.0133056640625	-0.0	-0.0	-0.0	-0.0	-0.0	-0.0	167154.640625	-25296.244140625	-2288.42529296875
0.394	-0.0	-0.0	-0.0	-0.0	-0.0	-0.0	-4.387780666351318	-3.8589916229248047	-502.8319091796875	-0.0	-0.0	-0.0	-0.0	-0.0	-0.0	166411.125	-25213.9921875	-2050.91943359375
0.3945	-0.0	-0.0	-0.0	-0.0	-0.0	-0.0	-4.374342441558838	-4.212047576904297	-501.0325927734375	-0.0	-0.0	-0.0	-0.0	-0.0	-0.0	165688.265625	-25142.052734375	-2050.999755859375
0.395	-0.0	-0.0	-0.0	-0.0	-0.0	-0.0	-4.518594741821289	-4.416084289550781	-499.5270080566406	-0.0	-0.0	-0.0	-0.0	-0.0	-0.0	165306.796875	-25298.216796875	-1987.4793701171875
0.3955	-0.0	-0.0	-0.0	-0.0	-0.0	-0.0	-3.8222155570983887	-4.572551727294922	-499.875244140625	-0.0	-0.0	-0.0	-0.0	-0.0	-0.0	165285.3125	-25608.703125	-1733.7291259765625
0.396	-0.0	-0.0	-0.0	-0.0	-0.0	-0.0	-2.8949780464172363	-4.897911548614502	-500.8424072265625	-0.0	-0.0	-0.0	-0.0	-0.0	-0.0	165354.859375	-25673.57421875	-1390.7589111328125
0.3965	-0.0	-0.0	-0.0	-0.0	-0.0	-0.0	-1.9799253940582275	-4.652885437011719	-499.747314453125	-0.0	-0.0	-0.0	-0.0	-0.0	-0.0	165340.484375	-25726.4296875	-1248.4796142578125
0.397	-0.0	-0.0	-0.0	-0.0	-0.0	-0.0	-1.714024543762207	-4.532800674438477	-501.73089599609375	-0.0	-0.0	-0.0	-0.0	-0.0	-0.0	165512.03125	-25763.951171875	-1163.1495361328125
0.3975	-0.0	-0.0	-0.0	-0.0	-0.0	-0.0	-1.201956033706665	-3.749330282211304	-499.9508056640625	-0.0	-0.0	-0.0	-0.0	-0.0	-0.0	165341.6875	-26013.74609375	-1053.4224853515625
0.398	-0.0	-0.0	-0.0	-0.0	-0.0	-0.0	-0.7874049544334412	-3.866301059722901	-501.4954528808594	-0.0	-0.0	-0.0	-0.0	-0.0	-0.0	165692.671875	-26125.685546875	-950.7913208007812
